<svg width="24" height="24" viewBox="0 0 24 24" fill="none" xmlns="http://www.w3.org/2000/svg">
<path d="M16.2174 17.0396L16.2197 17.0395L14.8261 6.65238V6.47738H14.8255L7.0313 6.47738L7.03089 6.47738C6.58638 6.4784 6.16038 6.65544 5.84606 6.96975C5.53175 7.28407 5.35471 7.71007 5.35369 8.15458V8.15499L5.35369 17.8454L5.35369 17.8458C5.35471 18.2903 5.53175 18.7163 5.84606 19.0307C6.16038 19.345 6.58638 19.522 7.03089 19.523H7.0313H16.2174C16.333 19.523 16.4438 19.4771 16.5256 19.3954C16.6073 19.3136 16.6533 19.2028 16.6533 19.0872C16.6533 18.9716 16.6073 18.8607 16.5256 18.779C16.4438 18.6972 16.333 18.6513 16.2174 18.6513C16.0037 18.6513 15.7987 18.5664 15.6475 18.4153C15.4964 18.2641 15.4115 18.0592 15.4115 17.8454C15.4115 17.6317 15.4964 17.4267 15.6475 17.2756C15.7987 17.1245 16.0037 17.0396 16.2174 17.0396ZM15.7711 8.29118L15.7711 16.1678L7.0313 16.1678L7.03069 16.1678C6.74687 16.1688 6.47007 16.2421 6.22543 16.3784V8.15499C6.22543 7.94126 6.31033 7.73628 6.46146 7.58515C6.61259 7.43402 6.81757 7.34912 7.0313 7.34912H14.8261C15.0762 7.34911 15.3161 7.44827 15.4933 7.62486C15.6703 7.80138 15.7702 8.04087 15.7711 8.29089C15.7711 8.29099 15.7711 8.29108 15.7711 8.29118ZM7.0313 18.6513C6.81757 18.6513 6.61259 18.5664 6.46146 18.4153C6.31033 18.2641 6.22543 18.0592 6.22543 17.8454C6.22543 17.6317 6.31033 17.4267 6.46146 17.2756C6.61259 17.1245 6.81757 17.0396 7.0313 17.0396H14.7374C14.6018 17.2845 14.5292 17.5616 14.5292 17.8454C14.5292 18.1293 14.6018 18.4063 14.7374 18.6513H7.0313Z" fill="black" stroke="black" stroke-width="0.35"/>
<path d="M17.0696 23.175H17.0697C18.1582 23.174 19.2018 22.7412 19.9715 21.9715C20.7412 21.2018 21.174 20.1582 21.175 19.0697V19.0696V6.93043V6.93028C21.174 5.84179 20.7412 4.79815 19.9715 4.02847C19.2018 3.25879 18.1582 2.82596 17.0697 2.825H17.0696L4.93043 2.825L4.93028 2.825C3.84179 2.82596 2.79815 3.25879 2.02847 4.02847C1.25879 4.79815 0.825962 5.84179 0.825 6.93028V6.93043L0.825 19.0696L0.825 19.0697C0.825962 20.1582 1.25879 21.2018 2.02847 21.9715C2.79815 22.7412 3.84179 23.174 4.93028 23.175H4.93043H17.0696ZM2.6459 4.6459C3.25198 4.03981 4.07349 3.69853 4.93062 3.69674H17.0694C17.9265 3.69853 18.748 4.03981 19.3541 4.6459C19.9602 5.25202 20.3015 6.0736 20.3033 6.93079V19.0692C20.3015 19.9264 19.9602 20.748 19.3541 21.3541C18.748 21.9602 17.9264 22.3015 17.0692 22.3033H4.93079C4.0736 22.3015 3.25202 21.9602 2.6459 21.3541C2.03981 20.748 1.69853 19.9265 1.69674 19.0694V6.93062C1.69853 6.07349 2.03981 5.25198 2.6459 4.6459Z" fill="black" stroke="black" stroke-width="0.35"/>
</svg>
