<svg width="25" height="24" viewBox="0 0 25 24" fill="none" xmlns="http://www.w3.org/2000/svg">
<path d="M20.8134 2.78751C20.9845 2.66422 21.0449 2.46609 20.9655 2.29149C20.886 2.11617 20.6822 2 20.4559 2H3.54498C3.31784 2 3.11487 2.11617 3.03455 2.29149C2.95509 2.4668 3.01555 2.66493 3.18656 2.78751L11.4554 8.7455V17.6533C11.4554 18.9568 9.96646 20.1006 8.26933 20.1006C7.96876 20.1006 7.72434 20.3016 7.72434 20.5503C7.72434 20.799 7.9679 21 8.26933 21H15.7315C16.0321 21 16.2765 20.799 16.2765 20.5503C16.2765 20.3016 16.033 20.1006 15.7315 20.1006C14.0344 20.1006 12.5454 18.9568 12.5454 17.6533V8.7455L20.8134 2.78751ZM19.004 2.89869L12.0004 7.94445L4.99683 2.89869H19.0032H19.004ZM12.8503 20.1006H11.1506C11.4874 19.8569 11.775 19.5732 12.0004 19.2596C12.2259 19.5732 12.5143 19.8569 12.8503 20.1006Z" fill="black" stroke="black" stroke-width="0.25" stroke-miterlimit="10"/>
<path d="M11.4103 4.36802C11.4103 4.63073 11.1731 4.84347 10.8803 4.84347C10.5874 4.84347 10.3502 4.63073 10.3502 4.36802C10.3502 4.10531 10.5874 3.89258 10.8803 3.89258C11.1731 3.89258 11.4103 4.10531 11.4103 4.36802Z" fill="black" stroke="black" stroke-width="0.5" stroke-miterlimit="10"/>
</svg>
