<svg width="24" height="24" viewBox="0 0 24 24" fill="none" xmlns="http://www.w3.org/2000/svg">
<path d="M18.875 2H5.125C2.85075 2 1 3.83545 1 6.09091V17.9091C1 20.1645 2.85075 22 5.125 22H18.875C21.1493 22 23 20.1645 23 17.9091V6.09091C23 3.83545 21.1493 2 18.875 2ZM22.0833 17.9091C22.0833 19.6636 20.6442 21.0909 18.875 21.0909H5.125C3.35583 21.0909 1.91667 19.6636 1.91667 17.9091V6.09091C1.91667 4.33636 3.35583 2.90909 5.125 2.90909H18.875C20.6442 2.90909 22.0833 4.33636 22.0833 6.09091V17.9091ZM19.3333 7C19.3333 7.25091 19.128 7.45455 18.875 7.45455H9.70833C9.45533 7.45455 9.25 7.25091 9.25 7C9.25 6.74909 9.45533 6.54545 9.70833 6.54545H18.875C19.128 6.54545 19.3333 6.74909 19.3333 7ZM6.5 7C6.5 7.50182 6.08933 7.90909 5.58333 7.90909C5.07733 7.90909 4.66667 7.50182 4.66667 7C4.66667 6.49818 5.07733 6.09091 5.58333 6.09091C6.08933 6.09091 6.5 6.49818 6.5 7ZM19.3333 12C19.3333 12.2509 19.128 12.4545 18.875 12.4545H9.70833C9.45533 12.4545 9.25 12.2509 9.25 12C9.25 11.7491 9.45533 11.5455 9.70833 11.5455H18.875C19.128 11.5455 19.3333 11.7491 19.3333 12ZM6.5 12C6.5 12.5018 6.08933 12.9091 5.58333 12.9091C5.07733 12.9091 4.66667 12.5018 4.66667 12C4.66667 11.4982 5.07733 11.0909 5.58333 11.0909C6.08933 11.0909 6.5 11.4982 6.5 12ZM19.3333 17C19.3333 17.2509 19.128 17.4545 18.875 17.4545H9.70833C9.45533 17.4545 9.25 17.2509 9.25 17C9.25 16.7491 9.45533 16.5455 9.70833 16.5455H18.875C19.128 16.5455 19.3333 16.7491 19.3333 17ZM6.5 17C6.5 17.5018 6.08933 17.9091 5.58333 17.9091C5.07733 17.9091 4.66667 17.5018 4.66667 17C4.66667 16.4982 5.07733 16.0909 5.58333 16.0909C6.08933 16.0909 6.5 16.4982 6.5 17Z" fill="#1D1D1B" stroke="#1D1D1B" stroke-width="0.5"/>
</svg>
